<svg id="exportSVG" visibility="visible" xmlns="http://www.w3.org/2000/svg" xmlns:xlink="http://www.w3.org/1999/xlink" version="1.1" data-info="draw.ninja" data-name="draw" viewBox="0 0 1000 700" width="1000" height="700" style="position: fixed; top: 0px; left: 0px;"><defs id="defsExport"><filter id="filter0"><feGaussianBlur stdDeviation="0"></feGaussianBlur></filter><pattern id="patternImage" patternUnits="userSpaceOnUse" x="0" y="0" width="1" height="1" data-x="0" data-y="0" data-width="1" data-height="1" data-multx="1" data-multy="1" patternTransform="matrix(1,0,0,1,0,0)" data-transs="0" data-transf="0" data-source="patternImage" data-draw="1" fill="#B3B3B3" fill-opacity="1"></pattern><pattern id="pattern0" patternUnits="userSpaceOnUse" x="0" y="0" width="10" height="10" data-x="0" data-y="0" data-width="10" data-height="10" data-multx="1" data-multy="1" stroke="none" patternTransform="matrix(1,0,0,1,0,0)" data-transs="0" data-transf="0" data-source="Pattern 0" data-draw="1" fill="#B3B3B3" fill-opacity="1"><path transform="matrix(1,0,0,1,0,0)" d="M0 0 L5 0 L5 5 L0 5 L0 0 Z"></path></pattern><pattern id="pattern1" patternUnits="userSpaceOnUse" x="0" y="0" width="10" height="10" data-x="0" data-y="0" data-width="10" data-height="10" data-multx="1" data-multy="1" stroke="none" patternTransform="matrix(1,0,0,1,0,0)" data-transs="0" data-transf="0" data-source="Pattern 1" data-draw="1" fill="#B3B3B3" fill-opacity="1"><path transform="matrix(1,0,0,1,0,0)" d="M0 5 L5 0 L10 5 L5 10 L0 5 Z"></path></pattern><pattern id="pattern2" patternUnits="userSpaceOnUse" x="0" y="0" width="10" height="10" data-x="0" data-y="0" data-width="10" data-height="10" data-multx="1" data-multy="1" stroke="none" patternTransform="matrix(1,0,0,1,0,0)" data-transs="0" data-transf="0" data-source="Pattern 2" data-draw="1" fill="#B3B3B3" fill-opacity="1"><path transform="matrix(1,0,0,1,0,0)" d="M0 9 L5 1 L10 9 L0 9 Z"></path></pattern><pattern id="pattern3" patternUnits="userSpaceOnUse" x="0" y="0" width="10" height="10" data-x="0" data-y="0" data-width="10" data-height="10" data-multx="1" data-multy="1" stroke="none" patternTransform="matrix(1,0,0,1,0,0)" data-transs="0" data-transf="0" data-source="Pattern 3" data-draw="1" fill="#B3B3B3" fill-opacity="1"><path transform="matrix(1,0,0,1,0,0)" d="M0 5 C0 2.25 2.25 0 5 0 C7.75 0 10 2.25 10 5 C10 7.75 7.75 10 5 10 C2.25 10 0 7.75 0 5 Z"></path></pattern><pattern id="pattern4" patternUnits="userSpaceOnUse" x="0" y="0" width="10" height="10" data-x="0" data-y="0" data-width="10" data-height="10" data-multx="1" data-multy="1" stroke="none" patternTransform="matrix(1,0,0,1,0,0)" data-transs="0" data-transf="0" data-source="Pattern 4" data-draw="1" fill="#B3B3B3" fill-opacity="1"><path transform="matrix(1,0,0,1,0,0)" d="M0 5 L4 4 L5 0 L6 4 L10 5 L6 6 L5 10 L4 6 L0 5 Z"></path></pattern><pattern id="pattern5" patternUnits="userSpaceOnUse" x="0" y="0" width="10" height="10" data-x="0" data-y="0" data-width="10" data-height="10" data-multx="1" data-multy="1" stroke="none" patternTransform="matrix(1,0,0,1,0,0)" data-transs="0" data-transf="0" data-source="Pattern 5" data-draw="1" fill="#B3B3B3" fill-opacity="1"><path transform="matrix(1,0,0,1,0,0)" d="M5 10 C-5 2.75 3 -1.75 5 1 C7 -1.75 15 2.75 5 10 Z"></path></pattern><pattern id="pattern6" patternUnits="userSpaceOnUse" x="0" y="0" width="10" height="10" data-x="0" data-y="0" data-width="10" data-height="10" data-multx="1" data-multy="1" stroke="none" patternTransform="matrix(1,0,0,1,0,0)" data-transs="0" data-transf="0" data-source="Pattern 6" data-draw="1" fill="#B3B3B3" fill-opacity="1"><path transform="matrix(1,0,0,1,0,0)" d="M3 0 L7 0 L7 10 L3 10 L3 0 Z"></path></pattern><pattern id="pattern7" patternUnits="userSpaceOnUse" x="0" y="0" width="10" height="10" data-x="0" data-y="0" data-width="10" data-height="10" data-multx="1" data-multy="1" stroke="none" patternTransform="matrix(1,0,0,1,0,0)" data-transs="0" data-transf="0" data-source="Pattern 7" data-draw="1" fill="#B3B3B3" fill-opacity="1"><path transform="matrix(1,0,0,1,0,0)" d="M10 3 L10 7 L0 7 L0 3 L10 3 Z"></path></pattern><pattern id="pattern8" patternUnits="userSpaceOnUse" x="0" y="0" width="10" height="10" data-x="0" data-y="0" data-width="10" data-height="10" data-multx="1" data-multy="1" stroke="none" patternTransform="matrix(1,0,0,1,0,0)" data-transs="0" data-transf="0" data-source="Pattern 8" data-draw="1" fill="#B3B3B3" fill-opacity="1"><path transform="matrix(1,0,0,1,0,0)" d="M0 10 L3 3 L10 0 L7 7 L0 10 Z"></path></pattern><pattern id="pattern9" patternUnits="userSpaceOnUse" x="0" y="0" width="10" height="10" data-x="0" data-y="0" data-width="10" data-height="10" data-multx="1" data-multy="1" stroke="none" patternTransform="matrix(1,0,0,1,0,0)" data-transs="0" data-transf="0" data-source="Pattern 9" data-draw="1" fill="#B3B3B3" fill-opacity="1"><path transform="matrix(1,0,0,1,0,0)" d="M0 4 L10 4 L10 6 L0 6 L0 4 Z M4 10 L4 0 L6 0 L6 10 L4 10 Z"></path></pattern><linearGradient id="linearSystem" gradientUnits="objectBoundingBox" x1="0%" y1="50%" x2="100%" y2="50%" spreadMethod="pad"><stop offset="50%" stop-color="#D0D0D0" stop-opacity="1"></stop><stop offset="100%" stop-color="transparent" stop-opacity="1"></stop></linearGradient><linearGradient id="linearSystem1" gradientUnits="objectBoundingBox" x1="0%" y1="50%" x2="100%" y2="50%" spreadMethod="pad"><stop offset="30%" stop-color="#D0D0D0" stop-opacity="1"></stop><stop offset="100%" stop-color="transparent" stop-opacity="1"></stop></linearGradient><linearGradient id="linearSystem2" gradientUnits="objectBoundingBox" x1="0%" y1="50%" x2="50%" y2="50%" spreadMethod="repeat"><stop offset="30%" stop-color="#D0D0D0" stop-opacity="1"></stop><stop offset="100%" stop-color="transparent" stop-opacity="1"></stop></linearGradient><linearGradient id="linearSystem3" gradientUnits="objectBoundingBox" x1="0%" y1="50%" x2="50%" y2="50%" spreadMethod="reflect"><stop offset="30%" stop-color="#D0D0D0" stop-opacity="1"></stop><stop offset="100%" stop-color="transparent" stop-opacity="1"></stop></linearGradient><radialGradient id="radialSystem" gradientUnits="objectBoundingBox" r="0.5" cx="0.5" fx="0.5" cy="0.5" fy="0.5" spreadMethod="pad"><stop offset="50%" stop-color="#D0D0D0" stop-opacity="1"></stop><stop offset="100%" stop-color="transparent" stop-opacity="1"></stop></radialGradient><pattern id="patternSystem" patternUnits="userSpaceOnUse" x="0" y="0" width="6" height="8"><path stroke="#D0D0D0" stroke-width="5" fill="none" d="M0 0 L0 10"></path></pattern><linearGradient id="linear0" gradientUnits="objectBoundingBox" x1="0%" y1="50%" x2="100%" y2="50%" spreadMethod="pad"><stop offset="0%" stop-color="#FF8000" stop-opacity="1"></stop><stop offset="100%" stop-color="#FFFF00" stop-opacity="1"></stop></linearGradient><linearGradient id="linear1" gradientUnits="objectBoundingBox" x1="0%" y1="50%" x2="100%" y2="50%" spreadMethod="pad"><stop offset="0%" stop-color="#FFFF00" stop-opacity="1"></stop><stop offset="100%" stop-color="#FF8000" stop-opacity="1"></stop></linearGradient><linearGradient id="linearImport" gradientUnits="objectBoundingBox" x1="0%" y1="50%" x2="100%" y2="50%" spreadMethod="pad"><stop offset="0%" stop-color="#FFFFFF" stop-opacity="0.1"></stop><stop offset="100%" stop-color="#000000" stop-opacity="0.1"></stop></linearGradient><radialGradient id="radial0" gradientUnits="objectBoundingBox" r="0.5" cx="0.5" fx="0.5" cy="0.5" fy="0.5" spreadMethod="pad"><stop offset="0%" stop-color="#FF8000" stop-opacity="1"></stop><stop offset="100%" stop-color="#FFFF00" stop-opacity="1"></stop></radialGradient><radialGradient id="radial1" gradientUnits="objectBoundingBox" r="0.5" cx="0.5" fx="0.5" cy="0.5" fy="0.5" spreadMethod="pad"><stop offset="0%" stop-color="#FFFF00" stop-opacity="1"></stop><stop offset="100%" stop-color="#FF8000" stop-opacity="1"></stop></radialGradient><radialGradient id="radialImport" gradientUnits="objectBoundingBox" r="0.5" cx="0.5" fx="0.5" cy="0.5" fy="0.5" spreadMethod="pad"><stop offset="0%" stop-color="#FFFFFF" stop-opacity="0.1"></stop><stop offset="100%" stop-color="#000000" stop-opacity="0.1"></stop></radialGradient></defs><rect id="pageExport" x="0" y="0" width="1000" height="700" fill="none" fill-opacity="0" stroke="none" stroke-width="0"></rect><g id="objectsExport" visibility="visible"><path id="path0" visibility="visible" stroke="#000000" stroke-width="2" stroke-opacity="1" stroke-linecap="round" stroke-linejoin="round" stroke-dasharray="none" marker-start="none" marker-end="none" fill="none" fill-rule="evenodd" fill-opacity="1" data-name="curve" data-title="curve" deg="0" data-sw="2" data-grad="0" data-group="0" data-edit="1" filter="none" d="M172.52 615.862 C172.52 615.862 172.52 611.591 171.494 604.328 C170.467 597.067 167.387 591.941 163.794 581.69 C160.2 571.439 158.146 565.458 158.146 553.925 C158.146 542.393 158.146 534.704 157.119 521.463 C156.093 508.22 156.093 508.22 156.093 498.823 C156.093 489.426 156.093 483.447 157.119 472.767 C158.146 462.088 158.146 457.817 158.146 450.556 C158.146 443.295 161.226 434.751 166.874 425.354 C172.52 415.957 172.52 415.957 179.708 403.142 C186.895 390.328 193.054 385.202 203.322 376.659 C213.589 368.116 220.776 365.553 250.038 360.002 C279.298 354.448 279.298 354.448 301.887 351.885 C324.474 349.322 324.474 349.322 346.035 346.76 C367.596 344.196 367.596 344.196 387.104 341.634 C406.612 339.07 406.612 339.07 427.146 338.216 C447.681 337.362 447.681 337.362 471.295 335.653 C494.91 333.944 494.91 333.944 514.417 333.944 C533.925 333.944 533.925 333.944 555.485 333.944 C577.047 333.944 577.047 333.944 599.634 333.944 C622.222 333.944 622.222 333.944 636.596 334.799 C650.97 335.653 662.264 338.216 667.911 339.497 C673.557 340.779 686.905 343.342 693.578 344.623 C700.253 345.905 713.6 350.177 720.274 352.312 C726.947 354.448 740.294 361.282 746.968 364.7 C753.642 368.116 765.962 378.368 772.122 383.494 C778.283 388.619 782.39 398.016 784.443 402.715 C786.497 407.414 789.577 417.666 791.116 422.792 C792.657 427.918 792.657 438.169 792.657 443.295 C792.657 448.42 795.737 459.527 797.277 465.079 C798.818 470.632 784.443 476.612 777.256 479.602 C770.069 482.592 755.696 487.718 748.508 490.281 C741.321 492.844 720.786 493.699 710.52 494.124 C700.253 494.551 685.878 494.551 678.691 494.551 C671.504 494.551 655.077 494.551 646.863 494.551 C638.649 494.551 620.169 495.406 610.928 495.833 C601.688 496.26 580.127 491.99 569.346 489.853 C558.565 487.718 541.111 486.864 532.384 486.436 C523.657 486.009 512.363 486.009 506.717 486.009 C501.069 486.009 489.776 485.155 484.128 484.729 C478.482 484.301 463.081 480.883 455.381 479.175 C447.681 477.466 433.306 472.34 426.119 469.778 C418.932 467.214 401.478 465.506 392.75 464.652 C384.024 463.797 372.73 463.797 367.083 463.797 C361.437 463.797 350.142 463.797 344.495 463.797 C338.848 463.797 328.581 466.361 321.395 469.35 C314.208 472.34 312.154 479.175 311.127 487.718 C310.101 496.26 310.101 503.949 311.127 511.211 C312.154 518.472 315.234 526.16 317.801 533.422 C320.368 540.684 327.554 546.664 335.255 551.363 C342.955 556.062 353.223 560.332 360.41 562.469 C367.596 564.604 376.837 562.895 383.511 560.332 C390.184 557.771 394.291 552.645 398.398 545.81 C402.505 538.976 409.691 526.16 413.285 519.754 C416.878 513.346 426.119 496.26 430.74 487.718 C435.36 479.175 446.654 469.778 452.3 465.079 C457.947 460.381 471.295 456.964 477.968 455.255 C484.642 453.546 497.989 456.11 504.663 457.39 C511.336 458.672 522.631 463.797 528.277 466.361 C533.925 468.923 538.032 475.757 542.138 482.592 C546.245 489.426 545.218 496.26 543.678 503.095 C542.138 509.929 540.084 516.765 537.005 522.744 C533.925 528.724 528.791 539.83 526.224 545.382 C523.657 550.936 519.55 557.771 519.55 557.771 " data-centerx="476.742" data-centery="474.904"></path><path id="path1" visibility="visible" stroke="#000000" stroke-width="2" stroke-opacity="1" stroke-linecap="round" stroke-linejoin="round" stroke-dasharray="none" marker-start="none" marker-end="none" fill="#00FFFF" fill-rule="evenodd" fill-opacity="1" data-name="curve" data-title="curve" deg="180" data-sw="2" data-grad="0" data-group="0" data-edit="1" filter="none" d="M998 571.439 L256.711 571.439 L256.711 703 L998 703 L998 571.439 Z " data-centerx="627.355" data-centery="637.219"></path><path id="path2" visibility="visible" stroke="#000000" stroke-width="2" stroke-opacity="1" stroke-linecap="round" stroke-linejoin="round" stroke-dasharray="none" marker-start="none" marker-end="none" fill="#FF0000" fill-rule="evenodd" fill-opacity="1" data-name="curve" data-title="curve" deg="324" data-sw="2" data-grad="0" data-group="0" data-edit="1" filter="none" d="M609.852 238.751 C556.081 151.18 547.222 49.33 590.166 12.414 C633.109 -24.505 712.24 16.939 766.011 104.507 C819.782 192.078 828.641 293.928 785.698 330.844 C742.754 367.762 663.623 326.32 609.852 238.751 Z " data-centerx="642.756" data-centery="195.925"></path><path id="path3" visibility="visible" stroke="#000000" stroke-width="2" stroke-opacity="1" stroke-linecap="round" stroke-linejoin="round" stroke-dasharray="none" marker-start="none" marker-end="none" fill="#0000A0" fill-rule="evenodd" fill-opacity="1" data-name="curve" data-title="curve" deg="62" data-sw="2" data-grad="0" data-group="0" data-edit="1" filter="none" d="M489.227 36.772 L581.773 189.47 L258.286 699.461 L-3.929 266.815 L489.227 36.772 Z " data-centerx="373.756" data-centery="368.116"></path><path id="path4" visibility="visible" stroke="#000000" stroke-width="2" stroke-opacity="1" stroke-linecap="round" stroke-linejoin="round" stroke-dasharray="none" marker-start="none" marker-end="none" fill="#008040" fill-rule="evenodd" fill-opacity="1" data-name="curve" data-title="curve" deg="0" data-sw="2" data-grad="0" data-group="0" data-edit="1" filter="none" d="M410.718 651.743 L998 651.743 L998 347.613 L410.718 347.613 L410.718 651.743 Z " data-centerx="704.36" data-centery="499.677"></path></g><g id="settings" visibility="hidden" data-dn0="primalDraw" data-dn1="#FAFAFA" data-dn2="#D2D2D2" data-dn3="18" data-dn4="#000000" data-dn5="#0000A0" data-dn6="1" data-dn7="1" data-dn8="2" data-dn9="round" data-dn10="round" data-dn11="none" data-dn12="none" data-dn13="none" data-dn14="evenodd" data-dn15="10" data-dn16="1" data-dn17="1000" data-dn18="700" data-dn19="10" data-dn20="0" data-dn21="1" data-dn22="1" data-dn23="5" data-dn24="path0,path1,path2,path3,path4" data-dn25="2" data-dn26="url(#linear0)" data-dn27="url(#linear1)" data-dn28="url(#radial0)" data-dn29="url(#radial1)" data-dn30="#FF8000" data-dn31="#FFFF00" data-dn32="#000000" data-dn33="1" data-dn34="1" data-dn35="10" data-dn36="" data-dn37="0" data-dn38="67"></g></svg>